<svg width="124" height="55" viewBox="0 0 124 55" xmlns="http://www.w3.org/2000/svg"><title>Fill 1</title><path d="M83.656 34.237c-1.68 0-2.807 1.127-3.083 2.99h6.005c-.138-2.07-1.197-2.99-2.922-2.99zm-34.643.16c-2.07 0-3.336 1.496-3.336 3.98v.185c0 2.46 1.22 4.003 3.336 4.003 2.07 0 3.313-1.542 3.313-4.003v-.16c0-2.485-1.242-4.004-3.313-4.004zM28.053 14.86c-2.07 0-3.336 1.494-3.336 3.98v.183c0 2.46 1.22 4.003 3.336 4.003 2.07 0 3.313-1.542 3.313-4.003v-.16c0-2.485-1.242-4.004-3.313-4.004zM63.69 34.397c-1.934 0-3.314 1.312-3.314 3.98v.184c0 2.692 1.31 3.957 3.336 3.957 2.048 0 3.175-1.38 3.175-3.958v-.184c0-2.668-1.38-3.98-3.198-3.98zm47.34 10.008c-.437.16-1.036.3-1.887.3-2.392 0-3.635-1.29-3.635-3.567v-6.58h-1.61v-2.095h1.61V29.82h2.784v2.645h2.646v2.094h-2.646v6.325c0 1.06.506 1.542 1.38 1.542.553 0 .967-.07 1.358-.23v2.21zm-13.94.322c-3.45 0-6.074-2.255-6.074-6.097v-.182c0-3.82 2.715-6.235 6.074-6.235 2.67 0 5.176 1.196 5.498 4.51h-2.692c-.23-1.612-1.288-2.278-2.76-2.278-1.91 0-3.267 1.472-3.267 3.956v.186c0 2.622 1.287 4.003 3.335 4.003 1.472 0 2.737-.876 2.9-2.578h2.552c-.207 2.76-2.3 4.716-5.567 4.716zm-7.752-5.636h-8.81c.09 2.277 1.24 3.565 3.312 3.565 1.68 0 2.553-.667 2.76-1.84h2.692c-.39 2.53-2.44 3.91-5.522 3.91-3.542 0-6.096-2.323-6.096-6.12v-.183c0-3.727 2.554-6.21 5.982-6.21 2.99 0 5.682 1.77 5.682 6.072v.806zm-15.666-8.415c-1.03 0-1.853-.772-1.853-1.775 0-1.03.822-1.802 1.852-1.802 1.03 0 1.853.77 1.853 1.802 0 1.003-.824 1.775-1.853 1.775zm1.426 14.235c0 2.44-1.104 3.865-4.44 3.91v-2.14c1.22-.09 1.656-.69 1.656-1.7V32.464h2.784v12.447zm-5.36-6.395c0 3.865-2.23 6.21-5.336 6.21-1.91 0-3.29-.942-3.934-2.162v1.933h-2.784v-17.6h2.784v7.5c.667-1.15 2.162-2.185 3.934-2.185 3.014 0 5.337 2.232 5.337 6.12v.184zm-14.56.022c0 3.75-2.646 6.188-6.19 6.188-3.54 0-6.164-2.462-6.164-6.12v-.184c0-3.727 2.646-6.21 6.19-6.21 3.518 0 6.164 2.46 6.164 6.14v.185zm-12.45-23.52h-2.737v9.94h-2.783v-9.94h-1.633v-2.094h1.633v-1.61c0-2.645 1.473-4.072 4.05-4.072.667 0 1.08.07 1.587.23v2.162c-.322-.114-.76-.206-1.265-.206-1.128 0-1.59.736-1.59 1.77v1.726h2.74v2.094zm1.288-2.094h1.61V10.28h2.784v2.646h2.646v2.094H48.41v6.326c0 1.06.506 1.542 1.38 1.542.553 0 .967-.07 1.358-.23v2.21c-.437.16-1.035.298-1.887.298-2.39 0-3.634-1.288-3.634-3.566v-6.58h-1.61v-2.094zM34.218 19c0 3.75-2.646 6.188-6.188 6.188-3.543 0-6.166-2.46-6.166-6.12v-.183c0-3.727 2.646-6.21 6.19-6.21 3.518 0 6.164 2.46 6.164 6.14V19zm-18.794 6.188c-3.106 0-4.924-1.426-5.04-3.98h2.624c.138 1.22.76 1.933 2.393 1.933 1.496 0 2.163-.528 2.163-1.54 0-.99-.805-1.358-2.576-1.657-3.175-.506-4.35-1.403-4.35-3.658 0-2.415 2.256-3.61 4.51-3.61 2.462 0 4.418.92 4.717 3.634h-2.577c-.23-1.106-.85-1.612-2.14-1.612-1.196 0-1.91.575-1.91 1.426 0 .874.576 1.22 2.486 1.542 2.83.437 4.51 1.127 4.51 3.68 0 2.44-1.726 3.842-4.81 3.842zm90.475-5.01H64.562c.108-.783.163-1.574.163-2.372 0-9.6-7.81-17.41-17.41-17.41H17.41C7.81.395 0 8.205 0 17.805c0 9.6 7.81 17.412 17.41 17.412h12.896c-.108.782-.163 1.573-.163 2.37 0 9.6 7.81 17.412 17.412 17.412H105.9c9.6 0 17.41-7.81 17.41-17.41 0-9.602-7.81-17.413-17.41-17.413z" fill="#FFF" fill-rule="evenodd"/></svg>