<?xml version="1.0" encoding="UTF-8" standalone="no"?>
<svg width="440px" height="442px" viewBox="0 0 440 442" version="1.1" xmlns="http://www.w3.org/2000/svg" xmlns:xlink="http://www.w3.org/1999/xlink" xmlns:sketch="http://www.bohemiancoding.com/sketch/ns">
    <g id="Page-1" stroke="none" stroke-width="1" fill="none" fill-rule="evenodd" sketch:type="MSPage">
        <g id="Artboard" sketch:type="MSArtboardGroup" fill="#FFFFFF">
            <g id="externalLink" sketch:type="MSLayerGroup" transform="translate(-1.000000, 0.000000)">
                <g id="Layer_1" sketch:type="MSShapeGroup">
                    <g id="Group">
                        <path d="M421.105455,0.7 L279.966818,0.7 C268.615455,0.7 259.474091,9.8 259.474091,21.1 C259.474091,32.4 268.615455,41.5 279.966818,41.5 L373.891818,41.5 L172.882273,241.5 C164.845909,249.5 164.845909,262.4 172.882273,270.3 C176.900455,274.3 182.124091,276.3 187.347727,276.3 C192.571364,276.3 197.795,274.3 201.813182,270.3 L400.612727,72.5 L400.612727,161.5 C400.612727,172.8 409.754091,181.9 421.105455,181.9 C432.456818,181.9 441.598182,172.8 441.598182,161.5 L441.598182,21.1 C441.497727,9.8 432.356364,0.7 421.105455,0.7 L421.105455,0.7 Z" id="Shape"></path>
                        <path d="M350.184545,206 C338.833182,206 329.691818,215.1 329.691818,226.4 L329.691818,387.2 C329.691818,394.6 323.463636,400.8 316.03,400.8 L54.9486364,400.8 C47.515,400.8 41.2868182,394.6 41.2868182,387.2 L41.2868182,127.3 C41.2868182,119.9 47.515,113.7 54.9486364,113.7 L217.082273,113.7 C228.433636,113.7 237.575,104.6 237.575,93.3 C237.575,82 228.433636,72.9 217.082273,72.9 L54.9486364,72.9 C24.8122727,72.9 0.301363636,97.3 0.301363636,127.3 L0.301363636,387.2 C0.301363636,417.2 24.8122727,441.6 54.9486364,441.6 L316.03,441.6 C346.166364,441.6 370.677273,417.2 370.677273,387.2 L370.677273,226.4 C370.677273,215.1 361.535909,206 350.184545,206 L350.184545,206 Z" id="Shape"></path>
                    </g>
                </g>
            </g>
        </g>
    </g>
</svg>