<svg version="1.1" id="name" xmlns="http://www.w3.org/2000/svg" xmlns:xlink="http://www.w3.org/1999/xlink" x="0px" y="0px" viewBox="0 0 600 600" enable-background="disable" xml:space="preserve">
            <g>
                <path class="nametext" stroke="#FFFFFF" fill="rgba(0,0,0,0)" stroke-width="1" d="M44.6,309l15.7-15.7l57.2,35.7l-35.1-57l14.8-14.8l57.5,34.6l-36.3-56.5l15-15l48.7,85l-13.6,13.6l-61.9-37
        l37.3,61.5l-13.2,13.2L44.6,309z"></path>
                <path class="nametext" stroke="#FFFFFF" fill="rgba(0,0,0,0)" stroke-width="1" d="M143.9,209.7l13.9-13.9l66.8,66.8l-13.9,13.9L143.9,209.7z"></path>
                <path class="nametext" stroke="#FFFFFF" fill="rgba(0,0,0,0)" stroke-width="1" d="M176.2,177.4l13.9-13.9l54.8,54.8l31.6-31.6l10.5,13.5l-44.1,44.1L176.2,177.4z"></path>
                <path class="nametext" stroke="#FFFFFF" fill="rgba(0,0,0,0)" stroke-width="1" d="M231.8,121.8l13.9-13.9l54.8,54.8l31.6-31.6l10.5,13.5l-44.1,44.1L231.8,121.8z"></path>
                <path class="nametext" stroke="#FFFFFF" fill="rgba(0,0,0,0)" stroke-width="1" d="M54.6,523.7l13.9-13.9l39.8,39.8c5.7,5.7,10.9,8.9,15.6,9.6c4.7,0.8,9.5-1.2,14.1-5.9s6.6-9.4,5.9-14.1
        c-0.8-4.7-4-9.9-9.7-15.6l-39.8-39.8l13.9-13.9l39.8,39.8c5.1,5.1,8.8,10,11.1,14.9c2.4,4.9,3.6,9.6,3.6,14.3
        c0,4.6-1.1,9.2-3.3,13.6c-2.2,4.4-5.5,8.7-9.6,12.9c-4.2,4.2-8.6,7.5-13.1,9.7c-4.5,2.2-9,3.3-13.7,3.3c-4.6,0-9.4-1.3-14.3-3.8
        c-4.9-2.5-9.8-6.3-14.9-11.3L54.6,523.7z"></path>
                <path class="nametext" stroke="#FFFFFF" fill="rgba(0,0,0,0)" stroke-width="1" d="M123.5,454.7l23.7-23.7c5.2-5.2,10.2-9,14.8-11.1c4.6-2.2,8.9-3.3,12.8-3.2c3.9,0,7.4,0.9,10.6,2.5
            c3.2,1.7,5.9,3.6,8.2,5.9c4.3,4.3,7.1,8.7,8.5,13.2c1.4,4.5,1.2,9.6-0.5,15.3l41.9,14.8l-15.1,15.1l-36.3-13.9l-2.3,2.3L179,482.7
        l25.1,25.1l-13.8,13.8L123.5,454.7z M178.3,460.2c2.2-2.2,3.8-4.2,4.7-6.1c1-1.9,1.5-3.7,1.5-5.4c0-1.7-0.4-3.3-1.3-4.8
        c-0.9-1.5-2-3-3.5-4.4c-1.2-1.2-2.5-2.1-4-2.9c-1.5-0.7-3.1-1-4.8-1c-1.7,0.1-3.6,0.7-5.7,1.8c-2.1,1.1-4.3,2.9-6.7,5.3l-9.6,9.6
        l18.6,18.6L178.3,460.2z"></path>
                <path class="nametext" stroke="#FFFFFF" fill="rgba(0,0,0,0)" stroke-width="1" d="M187.5,390.8l16.8-16.8l66.5,33.2l-32.8-67l16.3-16.3l66.8,66.8l-12.8,12.8l-44.6-44.6l29.3,59.8
        l-10.9,10.9l-59.8-29.1l44.5,44.5l-12.5,12.5L187.5,390.8z"></path>
                <path class="nametext" stroke="#FFFFFF" fill="rgba(0,0,0,0)" stroke-width="1" d="M325.7,342.6c4.4,3.8,8.8,5.5,13,5c4.2-0.5,8.6-3,13.2-7.5c2.2-2.2,3.8-4.3,4.8-6.2c1-2,1.6-3.8,1.8-5.5
        c0.2-1.7-0.1-3.3-0.7-4.8c-0.7-1.5-1.6-2.8-2.9-4.1c-1.7-1.7-4-2.7-6.9-2.9c-2.8-0.2-6.3,1.1-10.5,3.9l-10.3,7.1
        c-4.1,2.8-7.9,5-11.5,6.6c-3.6,1.6-7.1,2.5-10.5,2.7s-6.7-0.4-9.9-1.8c-3.2-1.4-6.5-3.7-9.6-6.8c-3.2-3.2-5.4-6.6-6.5-10.3
        c-1.2-3.7-1.4-7.5-0.8-11.4c0.7-3.9,2.2-7.9,4.5-11.9s5.4-7.9,9.2-11.7c4.9-4.9,9.5-8.4,13.9-10.5c4.4-2.1,8.5-3.3,12.3-3.4
        c3.8-0.2,7.5,0.5,10.9,2c3.4,1.5,6.6,3.4,9.5,5.7L327,291.5c-4.4-3-8.3-4.3-11.9-4c-3.6,0.3-7.4,2.5-11.4,6.5
        c-2.4,2.4-4.1,4.5-5.2,6.5c-1.1,1.9-1.8,3.7-2.1,5.3c-0.3,1.6-0.2,3,0.3,4.3c0.5,1.2,1.2,2.3,2.2,3.3c2.5,2.5,5.1,3.7,7.7,3.5
        s6-1.6,10.1-4.3l11-7.4c8.7-5.8,16.3-8.8,22.9-8.9c6.6-0.2,12.9,2.8,19,8.8c2.9,2.9,5.1,6.2,6.5,9.7c1.4,3.6,1.9,7.3,1.6,11.3
        c-0.3,4-1.6,8.1-3.8,12.4c-2.2,4.3-5.5,8.6-9.9,13c-9.1,9.1-18,14.1-26.8,15.1c-8.7,0.9-17.2-2.3-25.5-9.8L325.7,342.6z"></path>
                <path class="nametext" stroke="#FFFFFF" fill="rgba(0,0,0,0)" stroke-width="1" d="M360.3,242.2l-20.1,20.1l-12.1-12.1l54.3-54.3l12.1,12.1l-20.1,20.1l54.8,54.8l-14,14L360.3,242.2z"></path>
                <path class="nametext" stroke="#FFFFFF" fill="rgba(0,0,0,0)" stroke-width="1" d="M487.5,227.8c-5,5-10.3,8.6-15.8,11c-5.6,2.3-11.2,3.3-17,3c-5.8-0.3-11.6-1.9-17.4-4.7
        c-5.8-2.8-11.4-7-16.8-12.4c-5.4-5.4-9.6-11-12.4-16.8c-2.8-5.8-4.4-11.6-4.7-17.4c-0.3-5.8,0.7-11.5,3-17.1
        c2.3-5.6,5.9-10.8,10.9-15.7c5-5,10.3-8.6,15.8-11c5.6-2.3,11.2-3.3,17-2.9c5.8,0.3,11.5,2,17.3,4.8c5.7,2.9,11.3,7,16.8,12.4
        c5.4,5.4,9.6,11,12.5,16.7c2.9,5.7,4.5,11.5,4.9,17.2c0.3,5.8-0.6,11.4-2.9,17C496.2,217.5,492.5,222.8,487.5,227.8z M475.4,215.9
        c5.9-5.9,8.2-12.2,7.1-19.1c-1.1-6.9-5.4-14-12.8-21.4c-7.4-7.4-14.5-11.6-21.4-12.8c-6.9-1.2-13.3,1.2-19.1,7.1
        c-5.9,5.9-8.2,12.2-7.1,19.1c1.2,6.9,5.4,14,12.8,21.4c7.4,7.4,14.6,11.7,21.4,12.8C463.1,224.2,469.5,221.8,475.4,215.9z"></path>
                <path class="nametext" stroke="#FFFFFF" fill="rgba(0,0,0,0)" stroke-width="1" d="M462.1,116.2l12.5-12.5l71.3,16.3l-43.8-43.8l13.6-13.6l66.8,66.8l-12.4,12.4l-71-15.8l43.4,43.4L528.9,183
        L462.1,116.2z"></path>
            </g>
        </svg>