<svg class="spaceGrid" preserveAspectRatio="none" data-name="Layer 1" xmlns="http://www.w3.org/2000/svg" viewBox="0 0 596.33908 596.36413" >
  <g>
    <g id="panels">
      <path d="M25.578,0.0126H0.00012V27.8807q14.96155,2.15084,29.93164,4.0622Q27.86853,15.974,25.578.0126Z"/>
      <path d="M94.42175,39.27188Q91.967,19.63977,89.5885.0126H25.578q2.31079,15.96066,4.35376,31.9303Q62.16231,36.10864,94.42175,39.27188Z"/>
      <path d="M158.12487,44.54141Q155.62768,22.27414,152.67981.0126H89.5885q2.3584,19.62817,4.83325,39.25928Q126.26379,42.39483,158.12487,44.54141Z"/>
      <path d="M216.13073,47.65311q-1.76184-23.835-3.85034-47.6405H152.67981q2.94946,22.26132,5.44507,44.52881Q187.12365,46.495,216.13073,47.65311Z"/>
      <path d="M270.452,49.07638Q269.81883,24.55069,269.05772.0126H212.28039q2.09766,23.80389,3.85034,47.6405Q243.29077,48.72473,270.452,49.07638Z"/>
      <path d="M324.93177,49.09176Q325.53085,24.55837,326.233.0126H269.05775q0.75732,24.53778,1.39429,49.06378Q297.69374,49.43948,324.93177,49.09176Z"/>
      <path d="M379.06019,47.69154q1.75635-23.85425,3.87158-47.679H326.233Q325.53431,24.558,324.93177,49.0917,352.00062,48.743,379.06019,47.69154Z"/>
      <path d="M437.25792,44.59854Q439.72879,22.30261,442.63243.0126H382.93177q-2.12553,23.82312-3.87158,47.679Q408.1681,46.55786,437.25792,44.59854Z"/>
      <path d="M499.58094,39.481q2.59566-19.7417,5.58081-39.46838H442.63243q-2.90479,22.28989-5.37451,44.58594Q468.4335,42.50854,499.58094,39.481Z"/>
      <path d="M564.8607,32.09954Q567.0023,16.04611,569.411.0126H505.16175q-2.9821,19.7265-5.58081,39.46838Q532.24105,36.306,564.8607,32.09954Z"/>
      <path d="M596.339,27.82354V0.0126H569.411q-2.40784,16.03326-4.55029,32.08691Q580.60521,30.06915,596.339,27.82354Z"/>
      <path d="M29.93176,31.9429Q14.96252,30.00812.00012,27.88071V91.42654q18.63245,2.82761,37.27856,5.29956Q34.11426,64.32074,29.93176,31.9429Z"/>
      <path d="M94.42175,39.27188q-32.25806-3.16379-64.49-7.329,4.18286,32.3768,7.34692,64.7832,32.56567,4.30618,65.16528,7.50806C99.86218,82.56546,97.12756,60.91513,94.42175,39.27188Z"/>
      <path d="M164.44665,109.349q-2.68469-32.4071-6.32178-64.80756-31.86-2.14645-63.70313-5.26953c2.70581,21.64325,5.44043,43.29358,8.02222,64.96228Q133.43493,107.28433,164.44665,109.349Z"/>
      <path d="M220.28967,112.27q-1.7699-32.33046-4.15894-64.61687-29.00647-1.1445-58.00586-3.11169,3.63391,32.3996,6.32178,64.80756Q192.3633,111.20785,220.28967,112.27Z"/>
      <path d="M271.8993,113.56564q-0.61707-32.23672-1.44727-64.48926-27.16077-.36209-54.32129-1.42328,2.38586,32.28478,4.15894,64.61688Q246.09364,113.25464,271.8993,113.56564Z"/>
      <path d="M323.53868,113.51871q0.60681-32.20561,1.3931-64.42694-27.2373.35074-54.47977-.01538,0.8324,32.253,1.4473,64.48926Q297.72047,113.87739,323.53868,113.51871Z"/>
      <path d="M374.97374,112.14371q1.7146-32.248,4.08646-64.45215-27.05859,1.054-54.12842,1.40021-0.78735,32.2218-1.3931,64.42694Q349.26023,113.16183,374.97374,112.14371Z"/>
      <path d="M431.0099,109.14328q2.66785-32.27562,6.248-64.54474-29.08923,1.95007-58.19775,3.093-2.37158,32.20248-4.08643,64.45215Q403.00024,111.03409,431.0099,109.14328Z"/>
      <path d="M492.13121,104.09074Q495.337,71.77,499.58094,39.481q-31.14624,3.02774-62.323,5.11755-3.57642,32.26813-6.248,64.54474Q461.58483,107.07986,492.13121,104.09074Z"/>
      <path d="M557.32652,96.66617q3.23291-32.31729,7.53418-64.56665-32.618,4.20648-65.27975,7.38147-4.24548,32.28745-7.44974,64.60974Q524.75035,100.90066,557.32652,96.66617Z"/>
      <path d="M557.32652,96.66617q19.51584-2.53764,39.01245-5.45087V27.82354q-15.73242,2.27069-31.47827,4.27594Q560.55918,64.34654,557.32652,96.66617Z"/>
      <path d="M37.27868,96.7261Q18.63269,94.26054.00012,91.42654v62.52173q21.19958,2.80041,42.42749,5.18976Q40.32519,127.92255,37.27868,96.7261Z"/>
      <path d="M102.444,104.23416Q69.84608,101.026,37.27869,96.7261q3.04614,31.1955,5.14893,62.41193,33.349,3.755,66.75366,6.5105C107.17883,145.15427,104.88049,124.68606,102.444,104.23416Z"/>
      <path d="M164.44665,109.349q-31.01038-2.0648-62.00269-5.11481c2.43652,20.4519,4.73486,40.92011,6.7373,61.41437q29.70922,2.4462,59.44946,4.09949Q166.9458,139.54816,164.44665,109.349Z"/>
      <path d="M223.03747,172.12643q-1.11035-29.94168-2.7478-59.85645-27.925-1.06566-55.843-2.921,2.50159,30.19839,4.18408,60.399Q195.82665,171.2643,223.03747,172.12643Z"/>
      <path d="M272.86439,173.16428q-0.38672-29.79456-.96509-59.59863-25.80508-.31155-51.60963-1.29565,1.6377,29.9133,2.7478,59.85646Q247.9486,172.91607,272.86439,173.16428Z"/>
      <path d="M322.56919,173.11948q0.3999-29.79565.96948-59.60078-25.81714.35826-51.63937,0.04694,0.57056,29.80408.96509,59.59863Q297.718,173.40927,322.56919,173.11948Z"/>
      <path d="M372.3451,171.98892q1.04073-29.9361,2.62863-59.84521-25.71236,1.01807-51.43506,1.375-0.56177,29.80526-.96948,59.60076Q347.46243,172.82632,372.3451,171.98892Z"/>
      <path d="M426.815,169.5394q1.70068-30.19849,4.19482-60.39612-28.00854,1.89021-56.03613,3.00043-1.59041,29.9077-2.62863,59.84521Q399.59083,171.08145,426.815,169.5394Z"/>
      <path d="M486.99525,165.35013q2.09692-30.64023,5.136-61.25939-30.54492,2.98708-61.12134,5.05254-2.49536,30.19693-4.19482,60.39612Q456.92421,167.83066,486.99525,165.35013Z"/>
      <path d="M486.99525,165.35013q32.57227-2.68881,65.08322-6.28441,2.13135-31.22454,5.248-62.39954-32.57419,4.2356-65.19534,7.42456Q489.09423,134.7088,486.99525,165.35013Z"/>
      <path d="M552.07847,159.0657q22.14807-2.44446,44.2605-5.30371V91.2153q-19.49634,2.91064-39.01245,5.45087Q554.20823,127.83887,552.07847,159.0657Z"/>
      <path d="M42.42761,159.138Q21.20019,156.74786.00012,153.94827v57.73083q22.72046,2.06332,45.469,3.77809Q44.34045,187.29217,42.42761,159.138Z"/>
      <path d="M109.18131,165.64854q-33.40247-2.75024-66.75366-6.5105,1.89624,28.15375,3.0415,56.31915,34.07556,2.58023,68.19873,4.41643Q111.8712,192.72467,109.18131,165.64854Z"/>
      <path d="M168.63073,169.748q-29.73816-1.65811-59.44946-4.09949,2.64551,27.07874,4.48657,54.2251,28.6322,1.5379,57.28711,2.5567Q170.10131,196.09054,168.63073,169.748Z"/>
      <path d="M223.03747,172.12643q-27.20984-.86243-54.40674-2.37842,1.4696,26.3421,2.32422,52.68231,26.79822,0.959,53.60815,1.47858Q223.99694,198.01111,223.03747,172.12643Z"/>
      <path d="M273.39415,224.50461q-0.19629-25.66818-.52979-51.34033-24.91479-.24552-49.82689-1.03783,0.96021,25.88379,1.52563,51.78247Q248.97692,224.38353,273.39415,224.50461Z"/>
      <path d="M322.00526,224.40018q0.219-25.63834.564-51.2807-24.85.2926-49.70483,0.0448,0.33289,25.67239.52979,51.34033Q297.701,224.62372,322.00526,224.40018Z"/>
      <path d="M370.9503,223.59915q0.49915-25.81165,1.39481-51.61023-24.88188.82874-49.77591,1.13055-0.34383,25.64246-.564,51.2807Q346.48205,224.17367,370.9503,223.59915Z"/>
      <path d="M424.45909,221.95955q0.87712-26.2088,2.356-52.42012-27.223,1.545-54.47,2.44952-0.89685,25.79764-1.39478,51.61023Q397.71376,222.978,424.45909,221.95955Z"/>
      <path d="M424.45909,221.95955q29.80737-1.13656,59.583-2.75563,1.11182-26.93225,2.95313-53.85376-30.06885,2.48209-60.18018,4.18927Q425.33921,195.7504,424.45909,221.95955Z"/>
      <path d="M484.04209,219.20389q32.52832-1.76788,65.00513-4.09979,1.12354-28.03409,3.03125-56.03838-32.50891,3.588-65.08322,6.28441Q485.15321,192.27075,484.04209,219.20389Z"/>
      <path d="M549.04722,215.10409q23.66272-1.69427,47.29175-3.67157V153.762q-22.11182,2.85855-44.2605,5.30371Q550.16685,187.0683,549.04722,215.10409Z"/>
      <path d="M45.46911,215.45718q-22.74719-1.72238-45.469-3.77808v57.60107q23.45654,0.71823,46.93042,1.32623Q46.561,243.0289,45.46911,215.45718Z"/>
      <path d="M113.66784,219.87363q-34.121-1.83277-68.19873-4.41643,1.10486,27.571,1.46143,55.14922,34.56775,0.89081,69.169,1.5332C115.66589,254.689,114.819,237.26926,113.66784,219.87363Z"/>
      <path d="M170.955,222.43033q-28.65344-1.0253-57.28711-2.5567c1.15112,17.39563,1.998,34.81537,2.43163,52.266q27.95765,0.52121,55.93188.89072Q171.77576,247.733,170.955,222.43033Z"/>
      <path d="M224.56311,223.9089q-26.80884-.52121-53.60815-1.47858,0.82,25.30225,1.07643,50.6,26.62244,0.34323,53.25731.54022Q225.10778,248.73674,224.56311,223.9089Z"/>
      <path d="M273.39415,224.50461q-24.41638-.11975-48.831-0.59569,0.54272,24.82688.72559,49.66161,24.16958,0.17944,48.34767.23145Q273.57374,249.15387,273.39415,224.50461Z"/>
      <path d="M321.71232,273.80179q0.09041-24.70029.293-49.40161-24.30359.225-48.61108,0.10443,0.189,24.64957.24219,49.29736Q297.67186,273.86121,321.71232,273.80179Z"/>
      <path d="M370.34779,273.56833q0.119-24.98758.60254-49.96918-24.46729.56781-48.94507,0.801-0.2113,24.70166-.293,49.40161Q346.02867,273.742,370.34779,273.56833Z"/>
      <path d="M370.34779,273.56833q26.48474-.1972,52.97021-0.53595,0.28638-25.5336,1.14108-51.07288-26.74434,1.01962-53.50879,1.63965Q370.46731,248.57986,370.34779,273.56833Z"/>
      <path d="M423.318,273.03238q29.62642-.38141,59.249-0.95172,0.38306-26.44116,1.4751-52.87677-29.774,1.61819-59.583,2.75563Q423.60435,247.49822,423.318,273.03238Z"/>
      <path d="M482.567,272.08066q32.51807-.61624,65.02661-1.44629,0.3446-27.77509,1.45361-55.53027-32.47485,2.32516-65.00513,4.09979Q482.95079,245.63873,482.567,272.08066Z"/>
      <path d="M547.59361,270.63437q24.3772-.62485,48.74536-1.37628V211.43254q-23.62756,1.98175-47.29175,3.67157Q547.935,242.85777,547.59361,270.63437Z"/>
      <path d="M46.93054,270.60641q-23.47449-.60489-46.93042-1.32623v57.11615q23.462-.66183,46.94238-1.22211Q47.297,297.88954,46.93054,270.60641Z"/>
      <path d="M116.09948,272.13962q-34.60033-.645-69.16895-1.5332,0.36548,27.28262.012,54.56781,34.55823-.8204,69.15112-1.41193Q116.77075,297.90176,116.09948,272.13962Z"/>
      <path d="M172.03137,273.0303q-27.97485-.36063-55.93188-0.89069,0.6405,25.76395-.00586,51.62268,27.94152-.47983,55.90015-0.82007Q172.286,297.99017,172.03137,273.0303Z"/>
      <path d="M225.28869,273.57056q-26.63452-.19775-53.25732-0.54022,0.25269,24.95956-.0376,49.91193,26.64368-.3165,53.30054-0.49811Q225.46679,298.00713,225.28869,273.57056Z"/>
      <path d="M273.6363,273.802q-24.17725-.0596-48.34766-0.23145,0.178,24.436.00562,48.8736,24.16772-.16525,48.344-0.2132Q273.698,298.016,273.6363,273.802Z"/>
      <path d="M273.6363,273.802q0.06189,24.21405.002,48.429,24.00513-.05461,48.01563,0-0.03076-24.21506.05835-48.4292Q297.67164,273.861,273.6363,273.802Z"/>
      <path d="M370.34779,273.56833q-24.31934.181-48.6355,0.23346-0.089,24.21414-.05835,48.4292,24.39954,0.05521,48.80127.21588Q370.23182,298.00741,370.34779,273.56833Z"/>
      <path d="M370.45521,322.44687q26.42212,0.18146,52.84375.49286-0.26294-24.94968.019-49.90735-26.48511.34094-52.97021,0.53595Q370.231,298.00677,370.45521,322.44687Z"/>
      <path d="M423.299,322.93973q29.60193,0.351,59.19971.87579-0.30725-25.86786.06836-51.73486-29.62244.5614-59.249,0.95172Q423.03822,297.98975,423.299,322.93973Z"/>
      <path d="M482.49864,323.81555q32.58215,0.56863,65.15356,1.33508-0.39587-27.26331-.05859-54.51627-32.50781.83322-65.02661,1.44629Q482.192,297.947,482.49864,323.81555Z"/>
      <path d="M547.6522,325.1506q24.34827,0.57513,48.68677,1.26654V269.25809q-24.36841.74689-48.74536,1.37628Q547.2556,297.886,547.6522,325.1506Z"/>
      <path d="M46.9425,325.17422q-23.48071.55737-46.94238,1.22211v56.61035q22.76038-2.03082,45.53906-3.7442Q46.59753,352.21973,46.9425,325.17422Z"/>
      <path d="M115.42322,342.587c0.29663-6.28015.50635-12.55408,0.67041-18.82471q-34.59192.594-69.15112,1.41193-0.35083,27.04486-1.40332,54.08826,34.06348-2.57208,68.16016-4.455Q114.74048,358.729,115.42322,342.587Z"/>
      <path d="M171.99377,322.94223q-27.95947.33206-55.90015,0.82007c-0.16405,6.27063-.37378,12.54456-0.67041,18.82471q-0.66576,16.14555-1.7239,32.22055,28.58276-1.57315,57.18408-2.65265Q171.69786,347.55363,171.99377,322.94223Z"/>
      <path d="M225.29431,322.44412q-26.65649.18228-53.30054,0.49811-0.28857,24.61121-1.11035,49.21265,26.85754-1.01807,53.728-1.60431Q225.12047,346.49994,225.29431,322.44412Z"/>
      <path d="M225.29431,322.44412q-0.16956,24.05511-.68286,48.10645,24.39551-.53275,48.79884-0.71326,0.17578-23.80481.228-47.60638Q249.4625,322.28577,225.29431,322.44412Z"/>
      <path d="M273.63832,322.23093q-0.059,23.80179-.228,47.60638,24.20544-.17569,48.4165-0.00281-0.14941-23.80344-.17285-47.60352Q297.64367,322.1767,273.63832,322.23093Z"/>
      <path d="M321.82679,369.83453q24.69617,0.1777,49.39478.72437-0.54163-24.05347-.76636-48.112-24.40173-.16759-48.80127-0.21588Q321.68429,346.03134,321.82679,369.83453Z"/>
      <path d="M370.45521,322.44687q0.22009,24.05786.76636,48.112,26.56567,0.58282,53.13159,1.58557-0.78735-24.59729-1.0542-49.20471Q396.87716,322.62643,370.45521,322.44687Z"/>
      <path d="M424.35316,372.14444q29.71216,1.12335,59.41992,2.77264-0.97229-25.54907-1.27441-51.10156-29.59753-.51654-59.19971-0.87579Q423.5586,347.547,424.35316,372.14444Z"/>
      <path d="M483.77308,374.91708q32.69531,1.81677,65.38034,4.27667-1.10889-27.02234-1.50122-54.04315-32.5708-.76932-65.15353-1.33508Q482.80152,349.36743,483.77308,374.91708Z"/>
      <path d="M549.15342,379.19376q23.59717,1.773,47.18555,3.87238v-56.649q-24.33875-.68729-48.68677-1.26654Q548.04441,352.17,549.15342,379.19376Z"/>
      <path d="M45.53918,379.26248q-22.778,1.71991-45.53906,3.7442v59.50214q21.208-2.83118,42.44531-5.24664Q44.39331,408.26633,45.53918,379.26248Z"/>
      <path d="M113.69931,374.80756q-34.09569,1.87656-68.16016,4.455-1.13452,29.00317-3.09375,57.99969,33.319-3.79111,66.6958-6.57367C110.93615,412.10635,112.49031,393.48709,113.69931,374.80756Z"/>
      <path d="M170.88342,372.15488q-28.60071,1.08417-57.18411,2.65268c-1.209,18.67957-2.76318,37.29883-4.55811,55.881q29.63672-2.46643,59.30493-4.13568Q169.98532,399.362,170.88342,372.15488Z"/>
      <path d="M170.88342,372.15488q-0.90051,27.20645-2.43726,54.39795,27.29773-1.54047,54.61157-2.41522,0.98838-26.78677,1.55371-53.587Q197.74145,371.13745,170.88342,372.15488Z"/>
      <path d="M224.61145,370.55054q-0.56726,26.79932-1.55371,53.587,24.90454-.7977,49.814-1.04871,0.34351-26.6293.53857-53.25159Q249.00708,370.01445,224.61145,370.55054Z"/>
      <path d="M273.41032,369.83731q-0.197,26.62262-.53857,53.25159,24.72253-.24646,49.44238.04089-0.3219-26.65118-.4873-53.29529Q297.61621,369.66028,273.41032,369.83731Z"/>
      <path d="M321.82679,369.83453q0.16768,26.6445.48727,53.29529,25.25977,0.29745,50.50854,1.16107-0.99646-26.85919-1.60107-53.732Q346.52317,370.01686,321.82679,369.83453Z"/>
      <path d="M372.82264,424.29086q26.97437,0.91315,53.92749,2.4552-1.52527-27.2926-2.397-54.60162-26.56531-1.00433-53.13159-1.58557Q371.82652,397.4306,372.82264,424.29086Z"/>
      <path d="M424.35316,372.14444q0.87451,27.30835,2.397,54.60162,30.00142,1.71936,59.96387,4.21271-1.87646-28.01578-2.94092-56.04169Q454.06567,373.26639,424.35316,372.14444Z"/>
      <path d="M486.714,430.95877q32.85681,2.73679,65.64914,6.407-2.01819-29.08173-3.20972-58.17206-32.684-2.45581-65.38034-4.27667Q484.83944,402.94194,486.714,430.95877Z"/>
      <path d="M552.36314,437.36581q22.00607,2.45737,43.97583,5.32855V383.06613q-23.588-2.10617-47.18555-3.87238Q550.3469,408.28244,552.36314,437.36581Z"/>
      <path d="M42.44543,437.26218Q21.20886,439.67853.00012,442.50882v61.45892q18.69873-2.859,37.41333-5.35706Q40.38452,467.94382,42.44543,437.26218Z"/>
      <path d="M109.14123,430.68854q-33.37427,2.77762-66.6958,6.57367-2.06067,30.68088-5.032,61.34851,32.577-4.33731,65.19214-7.56128C104.97031,470.95154,107.19494,450.84134,109.14123,430.68854Z"/>
      <path d="M109.14123,430.68854c-1.94629,20.15283-4.1709,40.26306-6.53564,60.3609q30.85217-3.056,61.72754-5.12866,2.4353-29.67206,4.113-59.36792Q138.77977,428.22694,109.14123,430.68854Z"/>
      <path d="M168.44616,426.55283q-1.68054,29.69513-4.113,59.36792,28.01807-1.88068,56.04663-2.95288,1.59412-29.40216,2.678-58.83026Q195.745,425.01248,168.44616,426.55283Z"/>
      <path d="M223.05774,424.1376q-1.08582,29.42661-2.678,58.83026,25.77356-.9895,51.55029-1.302,0.55518-29.2944.94165-58.577Q247.96312,423.3372,223.05774,424.1376Z"/>
      <path d="M272.87168,423.0889q-0.37793,29.28241-.94165,58.577,25.64836-.31165,51.294.04266-0.54749-29.29514-.90991-58.57874Q297.59523,422.83882,272.87168,423.0889Z"/>
      <path d="M322.31407,423.12979q0.35413,29.28333.90991,58.57874,26.12366,0.36072,52.238,1.40875-1.54761-29.40015-2.6394-58.82642Q347.57458,423.43613,322.31407,423.12979Z"/>
      <path d="M372.82264,424.29086q1.09163,29.42468,2.63937,58.82642,27.69507,1.1109,55.37231,2.98962-2.42908-29.66849-4.08423-59.36084Q399.79844,425.20148,372.82264,424.29086Z"/>
      <path d="M430.8343,486.1069q30.44348,2.06635,60.85645,5.05725-2.959-30.09348-4.97681-60.20538-29.96045-2.49545-59.96387-4.21271Q428.40905,456.43771,430.8343,486.1069Z"/>
      <path d="M486.714,430.95877q2.01709,30.11078,4.97681,60.20538,32.94429,3.23785,65.841,7.54871-3.03992-30.66238-5.1687-61.347Q519.573,433.70409,486.714,430.95877Z"/>
      <path d="M557.53184,498.71286q19.41394,2.54526,38.80713,5.46558V442.69437q-21.969-2.87073-43.97583-5.32855Q554.49192,468.04825,557.53184,498.71286Z"/>
      <path d="M37.41345,498.61069q-18.71414,2.4917-37.41333,5.35706v65.56787q14.92639-2.1709,29.8606-4.12592Q34.17761,532.0227,37.41345,498.61069Z"/>
      <path d="M37.41345,498.61069q-3.23694,33.411-7.55273,66.799,32.26392-4.23111,64.55737-7.4668c2.77222-22.3111,5.56421-44.59515,8.1875-66.89349Q69.99267,494.27975,37.41345,498.61069Z"/>
      <path d="M102.60559,491.04941c-2.62329,22.29834-5.41528,44.5824-8.1875,66.89349q31.73584-3.1777,63.49121-5.38458,3.67859-33.30075,6.42383-66.63757Q133.4593,487.99313,102.60559,491.04941Z"/>
      <path d="M164.33313,485.92075q-2.7356,33.33609-6.42383,66.63757,29.10425-2.02222,58.21753-3.22217,2.44812-33.161,4.25293-66.36829Q192.35217,484.04388,164.33313,485.92075Z"/>
      <path d="M220.37976,482.96786q-1.80029,33.20554-4.25293,66.36829,27.16223-1.11978,54.32619-1.51886,0.85254-33.08624,1.477-66.15143Q246.15432,481.97906,220.37976,482.96786Z"/>
      <path d="M271.93,481.66586q-0.62659,33.06573-1.477,66.15143,27.13-.3988,54.25607-0.07452Q323.8375,514.715,323.224,481.70853,297.57933,481.3544,271.93,481.66586Z"/>
      <path d="M323.224,481.70856q0.6167,33.00719,1.48511,66.03421,27.4021,0.32794,54.79419,1.39764-2.29578-32.98865-4.04126-66.02313Q349.34864,482.06982,323.224,481.70856Z"/>
      <path d="M375.462,483.11728q1.73877,33.03278,4.04126,66.02313,28.864,1.12857,57.71069,3.08148-3.66431-33.03973-6.37964-66.115Q403.15831,484.22842,375.462,483.11728Z"/>
      <path d="M430.8343,486.1069q2.70813,33.07452,6.37964,66.115,31.08289,2.111,62.13794,5.19336-4.40881-33.10968-7.66113-66.2511Q461.27954,488.17523,430.8343,486.1069Z"/>
      <path d="M499.35194,557.41525q32.93221,3.2688,65.82346,7.63654-4.34985-33.14877-7.64355-66.33893-32.89453-4.3125-65.841-7.54871Q494.949,524.304,499.35194,557.41525Z"/>
      <path d="M557.53184,498.71286q3.29077,33.18768,7.64355,66.33893,15.5874,2.07074,31.16357,4.38837V504.17844Q576.9459,501.2612,557.53184,498.71286Z"/>
      <path d="M0.00012,569.53561v26.816H25.64685q2.23279-15.46738,4.21387-30.94189Q14.927,567.3681.00012,569.53561Z"/>
      <path d="M29.86072,565.4097q-2.00061,15.47379-4.21387,30.94189H89.70813q2.30859-19.2258,4.71-38.40869Q62.1263,561.17618,29.86072,565.4097Z"/>
      <path d="M94.41809,557.9429q-2.3844,19.18671-4.71,38.40869h62.958q2.82458-21.8877,5.24316-43.79327Q126.15551,554.76465,94.41809,557.9429Z"/>
      <path d="M157.90931,552.55832q-2.41992,21.90527-5.24316,43.79327H212.3368q2.06213-23.4928,3.79-47.01544Q187.01488,550.53631,157.90931,552.55832Z"/>
      <path d="M216.12683,549.33615q-1.73657,23.52118-3.79,47.01544H269.078q0.74634-24.27393,1.375-48.5343Q243.29,548.21655,216.12683,549.33615Z"/>
      <path d="M270.453,547.81729q-0.62512,24.26019-1.375,48.5343h57.0603q-0.78406-24.31119-1.4292-48.60883Q297.58387,547.41821,270.453,547.81729Z"/>
      <path d="M324.70909,547.74277q0.64128,24.29736,1.4292,48.60883h56.92285q-1.92078-23.59058-3.55786-47.21118Q352.11216,548.06952,324.70909,547.74277Z"/>
      <path d="M379.50331,549.14041q1.64392,23.61914,3.55786,47.21118h59.47461q-2.87512-22.05579-5.32178-44.1297Q408.3683,550.26276,379.50331,549.14041Z"/>
      <path d="M437.214,552.22189q2.44812,22.07373,5.32178,44.1297h62.40674q-2.99341-19.46155-5.59058-38.93634Q468.29831,554.333,437.214,552.22189Z"/>
      <path d="M499.35194,557.41525q2.59314,19.47455,5.59058,38.93634h64.57516q-2.28882-15.64407-4.34229-31.2998Q532.286,560.68252,499.35194,557.41525Z"/>
      <path d="M569.51768,596.35159H596.339V569.44015q-15.576-2.31931-31.16357-4.38837Q567.22947,580.70721,569.51768,596.35159Z"/>
    </g>
    <g id="horizontal">
      <path  d="M-41.98471,576.05c226.40865-37.47553,454.40865-38.47553,680.30849.08491"/>
      <path  d="M-35.6153,509.73081c222.03925-38.15636,446.03925-37.15636,667.62172.1104"/>
      <path  d="M-28.84578,446.51846c217.26972-31.944,437.26972-30.944,654.11545.10262"/>
      <path  d="M-23.28971,385.14591a3351.94248,3351.94248,0,0,1,643.02142.07025"/>
      <path  d="M-20.30047,326.95737c211.72442-6.38291,424.72442-6.38291,637.05037.02459"/>
      <path  d="M-20.3513,268.64344c211.77525,6.931,424.77525,6.931,637.15192-.02618"/>
      <path  d="M-23.50367,209.44857c213.92762,21.12588,429.92762,19.12588,643.44877-.07219"/>
      <path  d="M-28.94877,149.94089c217.37272,31.63356,437.37272,30.63356,654.321-.103"/>
      <path  d="M-35.83652,85.64428c222.26047,37.93018,446.26047,36.93018,668.0628-.11014"/>
      <path  d="M-41.98471,21.40672a2086.94849,2086.94849,0,0,0,680.30849-.08491"/>
    </g>
    <g id="vertical">
      <path  d="M576.00306-40.96447c-38.57911,224.53892-37.57911,452.53892-.08519,678.29308"/>
      <path  d="M510.70714-34.73124c-37.28319,221.30569-38.28319,444.30569-.11082,665.77549"/>
      <path  d="M446.41052-27.84348a2301.68543,2301.68543,0,0,0-.10336,651.96674"/>
      <path  d="M384.9941-22.25509c-20.57015,212.82954-18.57015,427.82954-.0711,640.772"/>
      <path  d="M326.77992-19.2202c-6.356,211.79466-7.356,422.79466-.02544,634.69485"/>
      <path  d="M268.46621-19.2202c6.95774,211.79466,6.95774,422.79466.02544,634.69485"/>
      <path  d="M210.252-22.25509a3405.95009,3405.95009,0,0,1,.0711,640.772"/>
      <path  d="M148.8356-27.84348c31.58834,217.41793,30.58834,435.41793.10336,651.96674"/>
      <path  d="M85.58008-34.62069c13.84387,125.19514,35.84387,250.19514,29.84387,377.19514-4,97-19,192-29.73292,288.35858"/>
      <path  d="M19.24306-40.96447a2078.6483,2078.6483,0,0,1,.08519,678.29308"/>
    </g>
  </g>
</svg>
