<svg id="Layer_1" data-name="Layer 1" xmlns="http://www.w3.org/2000/svg" viewBox="0 0 184.47075 160.55142"><title>caution</title><path d="M-921.04551,1230.00654l-89.23535-154.5603a2.99564,2.99564,0,0,0-5.18848,0l-89.23535,154.5603a2.99553,2.99553,0,0,0,2.59424,4.49341h178.4707A2.99568,2.99568,0,0,0-921.04551,1230.00654Zm-91.82959-114.261a8.88881,8.88881,0,0,1,8.87427,9.39795l-3.18115,55.46484a5.70258,5.70258,0,0,1-5.69312,5.376,5.70258,5.70258,0,0,1-5.69312-5.376l-3.1814-55.46484A8.88914,8.88914,0,0,1-1012.8751,1115.74555Zm0,103.48352a11.61128,11.61128,0,0,1-11.61133-11.61121,11.61122,11.61122,0,0,1,11.61133-11.61133,11.61138,11.61138,0,0,1,11.61133,11.61133A11.61143,11.61143,0,0,1-1012.8751,1219.22907Z" transform="translate(1105.11055 -1073.94852)" style="fill:#f7da1e"/></svg>