<svg id="Layer_1" data-name="Layer 1" xmlns="http://www.w3.org/2000/svg" viewBox="0 0 83.55726 79.91992"><title>icon</title><path d="M29.89924,79.91992a11.66415,11.66415,0,0,1-9-3.6001q-3.33105-3.60059-3.33008-9.71973V51.56982a8.92506,8.92506,0,0,0-.54-3.375,5.18248,5.18248,0,0,0-1.39551-2.0249,4.76909,4.76909,0,0,0-1.93457-.99023,8.89286,8.89286,0,0,0-2.16016-.27v-9.8999a8.86894,8.86894,0,0,0,2.16016-.27,5.06387,5.06387,0,0,0,1.93457-.94482,4.81533,4.81533,0,0,0,1.39551-1.93506,8.0139,8.0139,0,0,0,.54-3.1499V13.31982q0-6.11938,3.33008-9.71973a11.66245,11.66245,0,0,1,9-3.6001h7.37988V9.44971H33.04865q-2.61035,0-3.375,1.71A8.94148,8.94148,0,0,0,28.909,14.8501V29.87988a10.08335,10.08335,0,0,1-.90039,4.45508,9.7,9.7,0,0,1-2.2041,3.01514,10.30874,10.30874,0,0,1-2.74512,1.7998,8.12757,8.12757,0,0,1-2.52051.72021V40.0498a9.67,9.67,0,0,1,2.52051.62988,8.74592,8.74592,0,0,1,2.74512,1.71,9.48637,9.48637,0,0,1,2.2041,3.10547A11.65626,11.65626,0,0,1,28.909,50.3999V65.06982a8.93757,8.93757,0,0,0,.76465,3.68994q0.76465,1.70874,3.375,1.71h4.23047v9.4502H29.89924Z" style="fill:#0cf"/><path d="M69.85822,45.17969a4.779,4.779,0,0,0-1.93555.99023,5.1912,5.1912,0,0,0-1.39453,2.0249,8.94609,8.94609,0,0,0-.53906,3.375V66.6001q0,6.11865-3.33008,9.71973a11.667,11.667,0,0,1-9,3.6001H46.27912v-9.4502h4.22949q2.61035,0,3.375-1.71a8.93821,8.93821,0,0,0,.76563-3.68994V50.3999a11.64191,11.64191,0,0,1,.89941-4.90479,9.45968,9.45968,0,0,1,2.20508-3.10547,8.71323,8.71323,0,0,1,2.74512-1.71,9.64212,9.64212,0,0,1,2.52051-.62988V39.87012a8.10589,8.10589,0,0,1-2.52051-.72021,10.26261,10.26261,0,0,1-2.74512-1.7998A9.67131,9.67131,0,0,1,55.54865,34.335a10.07,10.07,0,0,1-.89941-4.45508V14.8501a8.94213,8.94213,0,0,0-.76562-3.69043q-0.76465-1.708-3.375-1.71H46.27912V0H53.659a11.66531,11.66531,0,0,1,9,3.6001q3.32813,3.60059,3.33008,9.71973V28.71a8.03273,8.03273,0,0,0,.53906,3.1499,4.823,4.823,0,0,0,1.39453,1.93506,5.0749,5.0749,0,0,0,1.93555.94482,8.86894,8.86894,0,0,0,2.16016.27v9.8999A8.89286,8.89286,0,0,0,69.85822,45.17969Z" style="fill:#f40"/></svg>