<?xml version="1.0" encoding="utf-8"?>
<!-- Generator: Adobe Illustrator 21.0.2, SVG Export Plug-In . SVG Version: 6.00 Build 0)  -->
<svg version="1.1" id="Layer_1" xmlns="http://www.w3.org/2000/svg" xmlns:xlink="http://www.w3.org/1999/xlink" x="0px" y="0px"
	 viewBox="0 0 315.2 315.1" style="enable-background:new 0 0 315.2 315.1;" xml:space="preserve">
<style type="text/css">
	.st0{fill:#FFFFFF;}
</style>
<g>
	<rect x="216.7" y="59.1" class="st0" width="19.7" height="78.9"/>
	<path class="st0" d="M19.7,19.7h275.7v275.7H19.7V19.7z M0,315.1h315.2V0H0V315.1z"/>
	<polygon class="st0" points="104.3,78.8 84.6,98.5 84.6,98.5 84.6,98.5 104.3,118.2 59.1,118.2 59.1,137.9 137.9,137.9 
		137.9,123.9 112.5,98.5 137.9,73.1 137.9,59.1 59.1,59.1 59.1,78.8 	"/>
	<polygon class="st0" points="78.8,256.1 78.8,210.9 123.8,255.9 123.9,256.1 137.9,256.1 137.9,177.3 118.2,177.3 118.2,222.4 
		73.1,177.3 73.1,177.3 59.1,177.3 59.1,256.1 	"/>
	<path class="st0" d="M226.6,205.4l8.5,22.5h-17.4L226.6,205.4z M210.6,246.1h31.8l3.8,10H266l-30.9-78.8h-17L187.1,256h19.7
		L210.6,246.1z"/>
</g>
</svg>
