<svg id="Layer_1" data-name="Layer 1" xmlns="http://www.w3.org/2000/svg" viewBox="0 0 2702 2007"><title>glyphs</title><rect x="-53.68494" y="-39.87627" width="2809.36988" height="2086.75254" style="fill:#fcfbe6"/><path d="M106.96678,258.83746V246.98h14.31836l55.48438-144.749h17.67383L255.07225,246.98H269.168v11.85742H221.06639V246.98h10.73828l-19.46289-47.42969H153.05467L134.93358,246.98h15.88281v11.85742H106.96678Zm50.33789-70.69629h50.33789l-26.17578-63.31348Z" style="fill:#ffc37a"/><path d="M301.82616,114.08844H286.166V102.231h56.377c25.72852,0,57.05078,4.251,57.05078,39.59863,0,22.59668-12.5293,29.75586-28.18945,31.99316,18.56836,3.5791,34.90039,13.42285,34.90039,41.165,0,43.40234-39.375,43.84961-65.32617,43.84961H301.82616v-144.749Zm0,144.749H286.166V246.98h15.66016v11.85742Zm38.48047-87.02832h2.9082c18.57031,0,37.36133-6.4873,37.36133-29.97949,0-23.49023-19.01562-27.74121-38.0332-27.74121H322.40819v57.7207h17.89844ZM340.9785,246.98c18.56836,0,44.07227-1.78906,44.07227-31.99219s-27.96484-31.32129-46.98047-31.32129H322.40819V246.98H340.9785Z" style="fill:#ffc37a"/><path d="M540.08592,244.96637V220.5816h16.7793v31.99219c-16.332,7.15918-39.15039,8.502-53.02148,8.502-15.21289,0-72.03906-3.80371-72.03906-79.87012,0-74.05273,56.82617-80.09277,72.03906-80.09277,9.84375,0,35.34766-.67187,53.02148,10.96191v31.99316h-16.7793v-26.624c-13.64648-5.81641-28.41211-5.14551-36.24219-5.14551-13.64844,0-48.54883,6.041-48.54883,68.90723s34.90039,67.56543,48.54883,67.56543A173.57711,173.57711,0,0,0,540.08592,244.96637Z" style="fill:#ffc37a"/><path d="M580.3496,246.98h15.66016V114.08844H580.3496V102.231H636.7285c25.95117,0,82.55469-2.01367,82.55469,78.30371,0,80.31641-57.498,78.30273-83.22656,78.30273h-55.707V246.98Zm55.707,0.44727c23.49219,0,60.18164,3.35645,60.18164-67.11719,0-70.47266-36.4668-66.89258-59.50977-66.89258H616.59374V247.4273h19.46289Z" style="fill:#ffc37a"/><path d="M743.21483,258.83746V246.98h19.24023V114.08844H743.21483V102.231H864.25v34.67676H852.39257V114.08844H782.81444v56.8252h36.24219V152.5689H830.914v48.54785H819.05663v-18.3457H782.81444V246.98h69.57813V224.1607H864.25v34.67676H743.21483Z" style="fill:#ffc37a"/><path d="M891.98436,258.83746V246.98h20.13477V114.08844H892.209V102.231h121.03516v34.67676h-11.85742V114.08844H931.80858v61.2998h36.24219V157.04351h11.85742v48.54785H968.05077v-18.3457H931.80858V246.98h19.46289v11.85742H891.98436Z" style="fill:#ffc37a"/><path d="M1139.19335,245.41461v-43.626h-23.26758v-12.082h42.95508v62.86719c-16.332,7.15918-42.95508,8.502-56.82617,8.502-15.21289,0-72.03906-3.80371-72.03906-79.87012,0-74.05273,56.82617-80.09277,72.03906-80.09277,9.84375,0,35.34961-.67187,53.02344,10.96191v36.46777h-16.7793V117.4439c-13.64648-5.81641-28.41406-5.14551-36.24414-5.14551-13.64648,0-48.54687,6.041-48.54687,68.90723s34.90039,67.56543,48.54688,67.56543C1111.00389,248.77105,1125.99413,248.09918,1139.19335,245.41461Z" style="fill:#ffc37a"/><path d="M1186.61718,258.83746V246.98h19.91016V114.08844h-19.91016V102.231h59.73438v11.85742h-19.24023v55.03613h77.4082V114.08844h-19.91211V102.231h59.73438v11.85742h-19.24023V246.98h19.24023v11.85742h-59.73437V246.98h19.91211V180.982h-77.4082V246.98h19.24023v11.85742h-59.73437Z" style="fill:#ffc37a"/><path d="M1372.07616,258.83746V246.98h19.91016V114.08844h-19.91016V102.231h59.73438v11.85742H1412.5703V246.98h19.24023v11.85742h-59.73437Z" style="fill:#ffc37a"/><path d="M1451.26952,239.37457V211.856h11.85742v22.14844c19.46289,20.583,64.65625,20.80664,64.65625-12.97559V114.08844h-23.04492V102.231h61.52539v11.85742h-18.793V223.4898C1546.79882,269.57672,1468.94335,270.91949,1451.26952,239.37457Z" style="fill:#ffc37a"/><path d="M1587.73436,258.83746V246.98h15.66016V114.08844h-15.66016V102.231h51.00781v11.85742h-14.76562v67.34082l70.47461-67.34082h-15.66211V102.231h51.68164v11.85742h-17.22656L1665.14257,160.399l51.9043,86.58105H1732.707v11.85742h-54.36523V246.98h14.0957l-42.50781-71.81445-25.95312,24.833V246.98h14.99023v11.85742h-51.23242Z" style="fill:#ffc37a"/><path d="M1757.08788,258.83746V246.98H1776.998V114.08844h-20.13477V102.231h60.18164v11.85742H1797.582V246.98h65.10352V224.1607H1874.543v34.67676H1757.08788Z" style="fill:#ffc37a"/><path d="M167.373,527.2984H113.0078V515.441H132.248V382.5484H113.0078V370.691h43.627l50.78516,129.98438L257.98046,370.691h40.27148V382.5484h-18.3457V515.441h19.91211V527.2984H240.9785V515.441h19.24023V400.8941L211.66991,527.2984H197.35155L147.46092,401.78863V515.441H167.373V527.2984Z" style="fill:#ffc37a"/><path d="M376.0996,527.2984H321.73436V515.441H340.9746V382.5484H321.06249V370.691h43.17969l85.23828,120.58789V382.5484H429.56835V370.691h54.36523V382.5484H464.69335v144.75H449.48046l-93.293-129.75977V515.441H376.0996V527.2984Z" style="fill:#ffc37a"/><path d="M504.28514,448.99469c0-74.05273,56.82617-80.54,72.03906-80.54,15.4375,0,72.03906,6.4873,72.03906,80.54,0,76.06641-56.60156,80.541-72.03906,80.541C561.11132,529.5357,504.28514,525.06109,504.28514,448.99469Zm120.58789,0c0-62.86621-34.90039-69.35449-48.54883-69.35449-13.64648,0-48.54687,6.48828-48.54687,69.35449,0,62.86719,34.90039,69.35449,48.54688,69.35449C590.1953,518.34918,624.873,511.86187,624.873,448.99469Z" style="fill:#ffc37a"/><path d="M708.08983,527.2984h-20.582v-144.75H671.84569V370.691h54.8125c32.66406,0,65.32813,3.13281,65.32813,48.77246,0,46.75879-33.55859,48.32422-65.998,48.32422H708.08983V527.2984ZM687.5078,515.441V527.2984H671.84569V515.441H687.5078Zm38.48047-59.51074c19.01563,0,44.74414,2.2373,44.74414-36.4668s-25.50391-36.915-44.07422-36.915H708.08983v73.38184h17.89844ZM723.75,515.441V527.2984H708.08983V515.441H723.75Z" style="fill:#ffc37a"/><path d="M960.89257,448.99469c0,53.4707-27.9668,70.47363-49.89062,75.84277,14.76563,5.59277,31.54492,10.96289,55.707,6.26465v14.76563c-38.0332,6.93555-68.23633-13.42383-93.06836-19.6875-22.373-3.58008-56.82617-18.12207-56.82617-77.18555,0-74.05273,56.82617-78.30371,72.03906-78.30371C904.289,370.691,960.89257,374.942,960.89257,448.99469Zm-120.58789,0c0,62.86719,34.90039,67.11719,48.54883,67.11719,13.87109,0,48.54688-4.25,48.54688-67.11719,0-62.86621-34.90039-67.11719-48.54687-67.11719C875.20507,381.8775,840.30467,386.12848,840.30467,448.99469Z" style="fill:#ffc37a"/><path d="M1026.21288,527.2984h-19.6875v-144.75H990.86522V370.691h62.19531c25.95117,0,64.209-.6709,64.209,43.17969,0,29.53125-15.4375,39.15137-34.23047,42.2832l34.00586,59.28711h16.10938V527.2984h-55.48437V515.441h16.7793l-31.32031-57.7207h-36.916V527.2984Zm-19.6875-11.85742V527.2984H990.86522V515.441h15.66016Zm46.75781-69.57812c14.543,0,42.28516,2.01367,42.28516-31.99219,0-34.00684-28.41406-31.32227-42.50781-31.32227h-26.84766v63.31445h27.07031Zm-8.72461,69.57813V527.2984h-18.3457V515.441h18.3457Z" style="fill:#ffc37a"/><path d="M1156.4121,519.46832v-30.874h12.752v21.03027c8.502,4.47363,20.35938,7.83008,38.0332,7.83008,25.28125,0,36.4668-14.542,36.4668-29.75586,0-38.7041-88.81836-25.28027-88.81836-79.42187,0-27.07031,21.70117-40.49414,53.4707-40.49414,26.39844,0,35.34766,6.48828,44.51953,9.62012v29.085h-12.752V387.023c-5.81641-3.35547-15.4375-6.93555-31.76758-6.93555-26.84766,0-33.7832,12.30469-33.7832,25.05762,0,30.874,89.71289,23.04395,89.71289,77.63184,0,31.32129-26.39844,46.75879-57.04883,46.75879C1181.02147,529.5357,1165.584,523.7193,1156.4121,519.46832Z" style="fill:#ffc37a"/><path d="M1314.57811,527.2984V515.441h20.13672V382.5484H1292.207v22.82031H1280.3496V370.691h128.64063v34.67773H1397.1328V382.5484h-41.83594V515.441h19.46484V527.2984h-60.18359Z" style="fill:#ffc37a"/><path d="M152.16014,651.00836V737.814h-20.584V651.00836H111.666V639.15094h59.73438v11.85742H152.16014Zm84.791,86.80566h14.541c0,37.36133-27.74023,60.18164-60.62891,60.18164-32.88672,0-59.28711-22.82031-59.28711-60.18164h20.584v6.26367c0,29.085,19.46289,39.82324,42.73047,39.82324C217.26366,783.90094,236.95116,766.45074,236.95116,737.814Zm14.541-86.80566V737.814h-14.541V651.00836H217.71092V639.15094h53.02148v11.85742H251.49217Z" style="fill:#ffc37a"/><path d="M288.8496,651.00836V639.15094h62.19531v11.85742H331.80467L380.80077,775.399l43.40234-124.39062H408.09374V639.15094H455.748v11.85742H440.08592l-51.23242,144.75h-23.043l-57.05078-144.75H288.8496Z" style="fill:#ffc37a"/><path d="M468.043,651.00836V639.15094H526.8828v11.85742H507.64257L544.78124,771.149l36.91406-131.998h15.88477l43.84961,131.998,32.88672-120.14062H654.40624V639.15094h54.36523v11.85742H689.53124l-39.59961,144.75H629.125L588.18358,671.815,552.38671,795.75836h-19.6875l-44.74414-144.75H468.043Z" style="fill:#ffc37a"/><path d="M725.98827,795.75836V783.90094h15.66016l45.86328-64.65625L740.082,651.00836H723.75194V639.15094H777.4453v11.85742H765.14061l35.125,50.33789,36.01953-50.33789H818.60936V639.15094H870.291v11.85742H853.73436l-44.52148,63.09082,48.77344,69.80176h14.31836v11.85742h-53.918V783.90094h14.09375l-36.01953-51.68066-36.4668,51.68066h16.332v11.85742H725.98827Z" style="fill:#ffc37a"/><path d="M933.37108,795.75836V783.90094h19.91211V733.33941l-47.20508-82.33105H888.40233V639.15094h54.14258v11.85742H928.22655l38.92773,67.78906,37.80859-67.78906H991.09178V639.15094h45.416v11.85742h-17.89649L973.86522,731.773v52.12793h19.24023v11.85742H933.37108Z" style="fill:#ffc37a"/><path d="M1146.79686,649.89019h25.28125l-92.39844,135.12988h82.7793v-18.3457h12.752v29.084H1054.17577V785.02008Zm-77.63086,0v18.3457H1056.4121v-29.085h115.666v10.73926H1069.166Z" style="fill:#ffc37a"/><path d="M185.94139,1050.12457c-8.05273,7.83008-22.5957,16.1084-39.375,16.1084-13.42383,0-32.88672-1.79-31.76953-34.23047,0.89648-21.9248,21.25391-32.21582,71.14453-33.11035V978.98c0.22461-28.41309-27.96484-22.81934-49.21875-12.30469v19.24023H123.07616v-22.5957c7.60547-9.39648,82.77734-37.58594,82.77734,19.24023v69.80176h14.76563v11.85742H185.94139v-14.09473Zm0-12.97559v-29.30859c-25.05664,1.11914-49.44336,3.80371-50.11328,21.70117-0.67187,16.1084,1.3418,24.61035,21.25391,24.38672C164.68749,1053.92828,179.23046,1046.7691,185.94139,1037.149Z" style="fill:#7373ff"/><path d="M302.498,947.88238c38.25781,0,49.44336,26.623,49.44336,58.61621,0,32.21582-16.10937,59.958-54.36523,59.958a38.17286,38.17286,0,0,1-27.29492-12.30469v10.06738H235.6035v-11.85742h14.99023V906.04644H235.38085V894.189h34.90039v77.4082C272.29491,963.99078,283.48241,947.88238,302.498,947.88238Zm-32.2168,91.72754c5.36914,9.39648,14.31836,16.10742,27.29492,16.10742,27.29492,0,33.334-30.20215,33.334-49.44238,0-19.0166-4.92187-47.42969-32.21484-47.42969-18.123,0-28.41406,21.9248-28.41406,29.53125v51.2334Z" style="fill:#7373ff"/><path d="M426.65819,1066.4566c-38.0332,0-51.9043-26.623-51.9043-58.61621,0-32.21582,13.64648-59.958,51.9043-59.958a68.04438,68.04438,0,0,1,37.584,11.18652v31.99219h-14.541V964.21441a48.47614,48.47614,0,0,0-23.043-6.04c-27.29492,0-30.65039,30.64941-30.65039,49.88965,0,19.0166,3.35547,46.98242,30.65039,46.98242,10.06641,0,23.9375-7.60645,28.41211-20.582h10.73828A40.6566,40.6566,0,0,1,426.65819,1066.4566Z" style="fill:#7373ff"/><path d="M533.37108,1066.4566c-38.0332,0-49.668-26.623-49.668-58.61621,0-32.21582,16.332-59.958,54.58984-59.958a38.1686,38.1686,0,0,1,27.293,12.30469V906.04644H549.92577V894.189h35.34766v158.17285h14.99023v11.85742H565.58592v-21.47754C563.57225,1050.3482,552.38671,1066.4566,533.37108,1066.4566Zm32.21484-46.31055V976.29547c-5.36914-9.39648-14.31836-18.3457-27.293-18.3457-27.29492,0-33.33594,30.874-33.33594,50.11426,0,19.0166,4.92188,47.65332,32.2168,47.65332C555.29491,1055.71734,565.58592,1029.9898,565.58592,1020.14605Z" style="fill:#7373ff"/><path d="M672.96678,1066.4566c-38.25781,0-53.24609-26.623-53.24609-58.61621,0-32.21582,14.98828-59.958,53.24609-59.958,37.36133,0,49.44336,27.07129,48.77148,58.16895h-80.541v2.0127c0,19.0166,4.47461,47.42969,31.76953,47.42969,14.541,0,27.07031-5.81641,31.99219-21.0293h12.5293C712.789,1054.15191,694.44335,1066.4566,672.96678,1066.4566Zm-31.09766-70.69727h57.7207c-0.89453-17.67383-5.14648-37.36133-26.623-37.36133C651.041,958.398,643.8828,978.08551,641.86913,995.75933Z" style="fill:#7373ff"/><path d="M823.75194,902.91363v27.51855H811.89452V909.40191c-30.65039-12.08105-33.334,14.98926-33.334,22.14844v23.49121h25.50391V966.899H778.56053v85.46289h17.44922v11.85742H745.67186v-11.85742H758.873V966.899H742.98827V955.04156H758.873V936.025C758.873,902.24273,787.28514,880.98883,823.75194,902.91363Z" style="fill:#7373ff"/><path d="M881.918,1113.66266c-26.623,0-55.25977-4.92187-55.25977-30.874,0-11.41016,10.73828-18.3457,22.14844-23.93848-33.11133-8.27832-14.0957-33.78223.67188-43.17871-12.5293-6.93555-17.45117-18.3457-17.45117-31.32129,0-20.80664,12.30469-36.46777,48.54883-36.46777a91.05555,91.05555,0,0,1,20.80469,2.2373h37.36328v11.85742l-18.57031-1.11816c5.14648,6.26367,7.16016,14.31836,7.16016,23.49121,0,20.582-10.06836,37.585-46.75781,37.585a83.94594,83.94594,0,0,1-19.46484-2.01367c-8.05469,6.041-27.74219,23.71484,21.92578,23.71484,47.20508,0,53.46875,19.91211,53.46875,39.82324C936.50585,1108.29254,908.541,1113.66266,881.918,1113.66266Zm36.69141-30.42676c0-13.2002-8.2793-21.70117-42.28516-21.70117a160.32489,160.32489,0,0,1-19.46289-1.11914c-7.38281,5.81738-11.1875,13.2002-11.41016,22.373,0,12.08106,9.39648,21.70117,36.4668,21.70117S918.60936,1095.09332,918.60936,1083.2359Zm-11.85742-98.66211c0-10.292,0-28.41309-26.17578-28.41309-25.72852,0-27.9668,18.12109-27.9668,28.41309,0,9.84375,2.23828,27.07031,27.9668,27.07031C906.75194,1011.6441,906.75194,994.41754,906.75194,984.57379Z" style="fill:#7373ff"/><path d="M113.0078,1332.68023v-11.85742H128.668V1174.50738H113.0078V1162.65h35.57227v73.38184c21.70117-26.40039,74.5-26.624,74.5,10.96191v73.8291h15.4375v11.85742h-50.5625v-11.85742H203.168v-64.209c0-36.4668-43.84961-29.75488-54.58789-6.04v70.249H163.5703v11.85742H113.0078Z" style="fill:#7373ff"/><path d="M259.99022,1332.68023v-11.85742h15.66016V1230.438H259.99022v-11.85742h35.34766v102.24219h14.99023v11.85742H259.99022Zm10.06836-147.6582c0-6.93555,6.26367-12.752,14.09375-12.752,7.38281,0,13.64648,5.81641,13.64648,12.752,0,7.15918-6.26367,12.752-13.64648,12.752C276.32225,1197.774,270.05858,1192.18121,270.05858,1185.022Z" style="fill:#7373ff"/><path d="M305.85155,1370.4898v-25.28125H317.709V1364.897c29.75391,15.21289,28.85938-12.75293,28.85938-18.56934V1230.438H328.66991v-11.85742h37.58594v121.25879C366.03319,1370.4898,338.73827,1393.53375,305.85155,1370.4898Zm35.123-185.46777c0-6.93555,6.26563-12.752,14.0957-12.752,7.38281,0,13.64648,5.81641,13.64648,12.752,0,7.15918-6.26367,12.752-13.64648,12.752C347.24022,1197.774,340.9746,1192.18121,340.9746,1185.022Z" style="fill:#7373ff"/><path d="M390.18944,1332.68023v-11.85742H405.8496V1174.50738H390.18944V1162.65H425.5371v108.50586l42.06055-40.71777H453.72655v-11.85742h50.11523V1230.438H483.707L455.51757,1257.733l37.80859,63.08984h14.543v11.85742H457.9785v-11.85742H471.8496l-29.75586-50.11426L425.5371,1286.817v34.00586h14.99023v11.85742H390.18944Z" style="fill:#7373ff"/><path d="M525.08788,1332.68023v-11.85742H540.748V1176.74469H525.08788v-11.85742h35.34766v155.93555h14.99023v11.85742H525.08788Z" style="fill:#7373ff"/><path d="M590.63475,1332.68023v-11.85742h15.66211V1230.438H590.63475v-11.85742H626.207v12.75293c20.35938-18.56934,57.7207-19.68848,67.56445,2.9082,22.59766-24.61035,72.93555-23.93848,72.93555,12.752v73.8291h15.43555v11.85742H731.582v-11.85742h15.21289v-66.44629c0-32.8877-35.79492-28.41309-50.5625-9.84375v76.29h15.4375v11.85742H661.10936v-11.85742h15.21289v-66.44629c0-32.66309-34.90234-28.63672-50.11523-10.51465v76.96094h14.99023v11.85742h-50.5625Z" style="fill:#7373ff"/><path d="M797.79686,1332.68023v-11.85742H813.457V1230.438H797.79686v-11.85742h35.57227v17.45117c21.70117-26.40039,74.5-26.624,74.5,10.96191v73.8291h15.4375v11.85742h-50.5625v-11.85742H887.957v-66.44629c0-36.4668-43.84961-27.07031-54.58789-3.35547v69.80176h14.98828v11.85742H797.79686Z" style="fill:#7373ff"/><path d="M941.42186,1276.30133c0-32.21582,12.97656-59.958,51.23242-59.958,38.48047,0,51.457,27.74219,51.457,59.958,0,31.99316-12.97656,58.61621-51.457,58.61621C954.39842,1334.91754,941.42186,1308.29449,941.42186,1276.30133Zm80.98828,0.22363c0-19.24023-2.23633-50.11426-29.75586-50.11426-27.293,0-29.53125,30.874-29.53125,50.11426,0,19.0166,2.23828,48.3252,29.53125,48.3252C1020.17382,1324.85016,1022.41014,1295.54156,1022.41014,1276.525Z" style="fill:#7373ff"/><path d="M1065.35936,1379.66266v-11.85742h15.21289V1230.438H1065.582v-11.85742h34.67773v90.16113c5.36914,9.39649,14.31836,16.1084,27.29492,16.1084,27.29492,0,33.334-30.874,33.334-50.11426,0-19.0166-4.92187-47.65332-32.21484-47.65332-18.123,0-28.41406,23.49121-28.41406,33.335v-20.35937c2.01367-7.60645,13.19922-23.71484,32.2168-23.71484,38.0332,0,49.666,26.623,49.666,58.61621,0,32.21582-16.332,59.958-54.58789,59.958a38.17286,38.17286,0,0,1-27.29492-12.30469v45.19238h15.21289v11.85742h-50.11328Z" style="fill:#7373ff"/><path d="M182.81053,1648.12262v-11.85742h15.21289v-56.60254c-2.01367,7.60644-13.20117,23.71484-32.2168,23.71484-38.0332,0-49.666-26.623-49.666-58.61621,0-32.21582,16.332-59.958,54.58789-59.958a38.17286,38.17286,0,0,1,27.29492,12.30469v-10.06738h34.67773V1498.898H217.71092v137.36719h15.21289v11.85742H182.81053Zm15.21289-88.81934v-48.32422c-5.36914-9.39648-14.31836-16.1084-27.29492-16.1084-27.29492,0-33.334,30.874-33.334,50.11426,0,19.0166,4.92188,47.65332,32.21484,47.65332C187.73241,1592.63824,198.02342,1569.148,198.02342,1559.30328Z" style="fill:#7373ff"/><path d="M246.7871,1601.14019v-11.85742h15.66016V1498.898H246.7871v-11.85742h35.57227v17.6748c12.08008-17.22754,34.23047-23.49121,52.79883-15.21387v29.75586H321.51171V1500.688c-13.42383-3.80371-31.54687,2.9082-39.15234,15.88477v72.71h14.98828v11.85742H246.7871Z" style="fill:#7373ff"/><path d="M349.91991,1594.42828v-26.39941h12.752v18.12207c7.38281,4.69824,19.24023,7.38281,28.86133,7.38281,15.4375,0,25.50391-5.14551,25.50391-20.35937,0-27.51758-66.22266-17.67383-66.22266-57.0498,0-22.5957,19.01758-31.32129,42.28516-31.32129,17.67383,0,33.55859,6.48828,38.0332,8.94922v24.60938H418.37889v-15.88379c-6.03906-5.59375-16.7793-7.60742-25.2793-7.60742-13.87109,0-24.834,5.81738-24.834,19.0166,0,20.13574,68.23633,16.55566,68.23633,57.04981,0,17.22754-16.55664,32.44043-44.96875,32.44043C366.02733,1603.3775,355.289,1597.11285,349.91991,1594.42828Zm5.59375-18.3457,1.78906-5.81641-1.78906,5.59277v0.22363Z" style="fill:#7373ff"/><path d="M470.28124,1498.898H457.08007v-11.85742h13.20117v-32.43945h19.6875v32.43945H525.541V1498.898H489.96874v73.8291c0,23.71484,19.46289,22.37207,33.11133,18.3457v-18.793h13.64648v23.04395c-10.96289,10.51465-66.44531,19.46387-66.44531-18.12207V1498.898Z" style="fill:#7373ff"/><path d="M642.31835,1583.69c-21.70117,26.39941-74.5,26.623-74.5-10.96289V1498.898H552.3828v-11.85742h35.34766v78.30371c0,36.4668,43.84961,26.623,54.58789,2.9082V1498.898H627.33007v-11.85742h34.90039v102.24219h15.66016v11.85742H642.31835V1583.69Z" style="fill:#7373ff"/><path d="M797.57616,1498.898l-37.584,102.24219h-16.7793L703.61327,1498.898H687.95116v-11.85742h47.87891V1498.898h-11.1875l30.65039,79.64649,28.86133-79.64649H768.04491v-11.85742h43.84961V1498.898H797.57616Z" style="fill:#7373ff"/><path d="M882.14061,1601.14019H862.90038L831.13085,1498.898h-14.541v-11.85742h43.84961V1498.898H849.47655l24.60938,79.64649,23.26758-91.50391h20.80664l27.07031,91.50391L964.6953,1498.898H947.916v-11.85742h46.08594V1498.898H979.01366l-25.72852,102.24219h-18.793l-29.084-93.96387Z" style="fill:#7373ff"/><path d="M999.81053,1601.14019v-11.85742h12.75391l33.78125-44.07324-31.32031-46.31152h-12.97656v-11.85742h47.877V1498.898h-11.41016l20.35938,29.75586,22.5957-29.75586h-13.42383v-11.85742h43.84961V1498.898h-16.55469l-29.97852,39.59961,34.67578,50.78516h13.20117v11.85742h-47.877v-11.85742h10.73828l-23.043-34.22949-25.95312,34.22949h12.082v11.85742h-39.377Z" style="fill:#7373ff"/><path d="M1133.59178,1647.22711v-30.42578h13.64844v22.5957c17.002,2.01367,23.49023-6.93555,27.293-22.37207l3.80469-11.41016-39.15234-106.7168h-15.21289v-11.85742h50.11328V1498.898h-13.64648l27.74219,77.63281,26.17578-77.63281h-14.0957v-11.85742h40.94141V1498.898h-14.31836l-42.73047,125.957C1177.88866,1644.31891,1166.25585,1653.939,1133.59178,1647.22711Z" style="fill:#7373ff"/><path d="M1322.41014,1497.77984h23.49023l-69.35352,92.62109H1334.043v-18.34473h12.752v29.084h-94.1875v-10.73926Zm-54.8125,0v18.34473h-12.752v-29.084h91.05469v10.73926h-78.30273Z" style="fill:#7373ff"/><path d="M110.32225,1813.22223c0-32.21582,15.21484-59.958,53.4707-59.958,38.48047,0,53.69336,27.74219,53.69336,59.958,0,31.99316-15.21289,58.61621-53.69336,58.61621C125.5371,1871.83844,110.32225,1845.21539,110.32225,1813.22223Zm85.46289,0.22363c0-19.24023-4.47461-50.11426-31.99219-50.11426-27.29492,0-31.76953,30.874-31.76953,50.11426,0,19.0166,4.47461,48.32519,31.76953,48.32519C191.31053,1861.77105,195.78514,1832.46246,195.78514,1813.44586Z" style="fill:#ffc37a"/><path d="M233.14257,1869.60113v-11.85742h15.66016v-90.38477H233.14257v-11.85742h35.34766v102.24219h14.99023v11.85742H233.14257Z" style="fill:#ffc37a"/><path d="M303.61327,1869.60113v-14.76562c24.832-16.55566,73.82813-45.416,73.82813-67.78906,0-14.76562-6.48828-23.2666-28.41211-23.2666-10.73828,0-22.373,3.35547-28.86133,8.05371v19.46387H307.416V1766.688h0.22461c9.39648-8.05469,27.293-13.42383,41.38867-13.42383,41.38867,0,46.31055,19.46387,46.31055,34.67773,0,26.39941-50.11523,57.0498-72.93359,69.80176h81.6582v11.85742H303.61327Z" style="fill:#ffc37a"/><path d="M418.15428,1907.4107l3.13281-11.18652c47.877,15.66113,70.47266.22363,70.47266-27.29394,0-16.1084-12.08008-31.09766-52.35156-31.09766v-13.64746c43.17969,0,47.207-21.70117,47.207-35.34863,0-17.22656-11.1875-25.50488-29.30859-25.50488-8.502,0-18.3457,2.68555-25.28125,7.38379v19.0166h-12.752v-24.61035c4.47461-2.46094,20.35938-11.85742,38.0332-11.85742,23.26758,0,49.89063,6.26465,49.89063,33.11133,0,27.07031-15.4375,38.92773-39.15234,43.626C496.01171,1831.3443,511,1847.22906,511,1870.49566,511,1909.20074,471.40233,1924.19,418.15428,1907.4107Z" style="fill:#ffc37a"/><path d="M610.77733,1851.9273v44.07324H591.75975V1851.9273H523.07616v-11.85742l66.89453-84.56836h20.80664v84.56836h20.35938v11.85742H610.77733Zm-72.26367-11.85742h53.24609v-65.77539Z" style="fill:#ffc37a"/><path d="M648.35741,1891.74957l3.13086-11.18555c47.877,15.66016,67.11719,2.46094,67.11719-25.05762,0-13.87109-2.01367-33.335-50.11328-33.335H660.6621v-66.66992H735.832v29.75586H722.18553v-17.89844H680.3496V1810.314h0.89453c43.627,0,57.498,19.46387,57.498,46.75879C738.74217,1895.77691,701.6035,1908.52887,648.35741,1891.74957Z" style="fill:#ffc37a"/><path d="M761.33007,1818.816c0-27.96582,4.02734-46.75879,17.67383-66.22266,14.0957-19.6875,30.875-28.63672,53.69531-32.8877l1.56445,9.39648c-31.32031,6.93555-43.17773,26.39941-49.666,55.03613,8.05469-12.52832,18.793-19.24024,30.65039-19.24024,35.79492,0,48.77148,26.17578,48.77148,54.1416s-12.97656,52.57519-50.33789,52.79883S761.33007,1847.00543,761.33007,1818.816Zm80.76563,0.44727c0-27.51856-6.71289-41.38867-28.41406-41.38867s-30.42578,14.09375-30.42578,41.38867c0,23.93848,8.27734,41.165,30.42578,41.165S842.09569,1843.42535,842.09569,1819.26324Z" style="fill:#ffc37a"/><path d="M893.77147,1767.35894v17.89844H880.125v-29.75586h87.92383v11.85742H893.77147Zm25.05664,135.80078H898.69335l49.44336-135.80078h19.6875Z" style="fill:#ffc37a"/><path d="M985.71874,1827.09332c0-16.55566,7.16016-26.84668,34.67773-40.27051-21.47852-8.72461-27.51758-22.14844-27.51758-37.585,0-19.0166,10.06641-38.0332,41.61133-38.0332s42.28516,19.0166,42.28516,38.0332c0,15.88379-6.041,25.72754-25.72852,35.34766,27.293,9.62012,32.66406,25.72852,32.66406,42.06055,0,21.92481-11.63477,45.19238-49.2207,45.19238S985.71874,1849.01812,985.71874,1827.09332Zm76.73828-.22363c0-7.38281-3.35742-29.53125-27.51953-35.57227l-0.44727.22363c-24.16211,8.94922-27.293,27.96582-27.293,35.34863,0,9.84375,2.9082,35.34863,27.293,35.34863C1058.87694,1862.21832,1062.457,1836.71344,1062.457,1826.86969Zm-27.51953-46.75781c17.89844-7.83105,22.14844-21.70215,22.14844-30.874,0-8.502-4.25-30.65039-22.5957-30.65039s-21.92383,22.14844-21.92383,30.65039c0,7.83008,3.57813,27.07031,21.92383,30.874h0.44727Z" style="fill:#ffc37a"/><path d="M1130.46288,1896.22418c31.32227-6.93555,43.17969-26.39941,49.668-55.03613-8.05469,12.52832-18.793,19.24023-30.65039,19.24023-35.79687,0-48.77148-26.17578-48.77148-54.1416,0-27.96484,12.97461-52.57519,50.33789-52.79883,37.36133-.22363,52.35156,24.834,52.35156,53.02344,0,27.96484-4.02734,46.75781-17.67578,66.22168-14.09375,19.68848-30.873,28.63672-53.69336,32.8877Zm-7.83008-90.16113c0,27.51855,6.71289,41.38965,28.41406,41.38965s30.42578-14.09473,30.42578-41.38965c0-23.93848-8.27734-41.165-30.42578-41.165S1122.6328,1781.90094,1122.6328,1806.063Z" style="fill:#ffc37a"/><path d="M2378.2246,1319.25641c0-8.27734,6.71094-14.98926,16.332-14.98926,9.39648,0,16.10742,6.71191,16.10742,14.98926,0,8.94922-6.71094,15.21387-16.10742,15.21387C2384.93553,1334.47027,2378.2246,1328.20562,2378.2246,1319.25641Z" style="fill:#ccc"/><path d="M2440.86327,1355.0523c12.752-9.17187,17.22656-15.66016,18.12109-21.9248a21.0937,21.0937,0,0,1-6.71094,1.11914c-9.62109,0-16.332-6.26465-16.332-15.21387,0-8.27734,6.71094-14.98926,16.332-14.98926,7.60547,0,13.42188,4.47461,15.43555,10.51465,2.91016,9.39648,3.58008,32.44043-21.70117,47.42969Z" style="fill:#ccc"/><path d="M2499.4746,1355.0523c12.75391-9.17187,17.22656-15.66016,18.123-21.9248a21.106,21.106,0,0,1-6.71289,1.11914c-9.61914,0-16.332-6.26465-16.332-15.21387,0-8.27734,6.71289-14.98926,16.332-14.98926,7.60742,0,13.42383,4.47461,15.4375,10.51465,2.9082,9.39648,3.58008,32.44043-21.70117,47.42969Zm-4.69727-123.49512c0-8.27832,6.71094-14.99023,16.332-14.99023,9.39648,0,16.10742,6.71191,16.10742,14.99023,0,8.94824-6.71094,15.21289-16.10742,15.21289C2501.48827,1246.77008,2494.77733,1240.50543,2494.77733,1231.55719Z" style="fill:#ccc"/><path d="M2552.27147,1231.55719c0-8.27832,6.71094-14.99023,16.332-14.99023,9.39648,0,16.10742,6.71191,16.10742,14.99023,0,8.94824-6.71094,15.21289-16.10742,15.21289C2558.98241,1246.77008,2552.27147,1240.50543,2552.27147,1231.55719Zm0,87.69922c0-8.27734,6.71094-14.98926,16.332-14.98926,9.39648,0,16.10742,6.71191,16.10742,14.98926,0,8.94922-6.71094,15.21387-16.10742,15.21387C2558.98241,1334.47027,2552.27147,1328.20562,2552.27147,1319.25641Z" style="fill:#ccc"/><path d="M2155.40233,1431.10992l8.94922,6.04c-40.94141,76.29-40.94141,129.08887,0,203.1416l-11.18555,7.15918C2099.918,1569.59527,2099.918,1509.8609,2155.40233,1431.10992Z" style="fill:#ccc"/><path d="M2197.90624,1431.10992c55.48242,78.751,55.48242,138.48535,2.23633,216.34082l-11.18555-7.15918c40.94141-74.05273,40.94141-126.85156,0-203.1416Z" style="fill:#ccc"/><path d="M2269.04491,1431.10992h47.42969v11.85742h-26.8457v193.29785h26.8457v11.85742h-47.42969v-217.0127Z" style="fill:#ccc"/><path d="M2338.84569,1636.26519h26.8457V1442.96734h-26.8457v-11.85742h47.42969v217.0127h-47.42969v-11.85742Z" style="fill:#ccc"/><path d="M2430.34569,1539.61578c31.09766,4.47461,29.97852,30.42676,29.97852,56.82617,0,25.28125-3.35547,39.82324,29.30859,39.82324v11.85742c-38.48047,0-50.11523-10.96289-50.11523-51.68066,0-25.95215-.89453-48.32422-32.66211-50.56152v-13.20019c31.76758-2.23731,32.66211-23.93848,32.66211-49.89062,0-39.15137,11.63477-51.67969,50.11523-51.67969v11.85742c-32.2168,0-29.30859,16.10742-29.30859,39.82227C2460.32421,1509.189,2461.44335,1535.3648,2430.34569,1539.61578Z" style="fill:#ccc"/><path d="M2563.00975,1539.61578c-31.09766-4.251-29.97852-30.42676-29.97852-56.82617,0-23.71484,2.9082-39.82227-29.30664-39.82227v-11.85742c38.48047,0,50.11328,12.52832,50.11328,51.67969,0,25.95215.89453,47.65332,32.66406,49.89063v13.20019c-31.76953,2.23731-32.66406,24.60938-32.66406,50.56152,0,40.71777-11.63281,51.68066-50.11328,51.68066v-11.85742c32.66211,0,29.30664-14.542,29.30664-39.82324C2533.03124,1570.04254,2531.9121,1544.09039,2563.00975,1539.61578Z" style="fill:#ccc"/><path d="M1946.2285,1770.71539h95.53125v14.09375H1946.2285v-14.09375Zm0,40.71777h95.53125v14.09473H1946.2285v-14.09473Z" style="fill:#ccc"/><path d="M2112.90038,1807.18219V1853.94h-14.09375v-46.75781h-42.95508v-14.09473h42.95508V1746.5523h14.09375v46.53516h42.95508v14.09473h-42.95508Z" style="fill:#ccc"/><path d="M2172.40428,1805.83941l113.20508-51.23242v18.12109l-89.26562,40.27051,89.26563,40.27051v18.12207l-113.20508-51.457v-14.09473Z" style="fill:#ccc"/><path d="M2308.86913,1871.39117V1853.2691l89.26563-40.27051-89.26562-40.27051V1754.607l113.20508,51.23242v14.09473Z" style="fill:#ccc"/><path d="M2443.76757,1856.1773c0-8.27734,6.71094-14.98926,16.332-14.98926,9.39648,0,16.10742,6.71191,16.10742,14.98926,0,8.94922-6.71094,15.21387-16.10742,15.21387C2450.4785,1871.39117,2443.76757,1865.12652,2443.76757,1856.1773Zm3.13086-156.60644h22.373l-3.80273,119.24512h-12.752Z" style="fill:#ccc"/><path d="M2522.291,1818.816v-31.5459c35.123-6.71094,44.51953-28.18848,44.51953-46.75781,0-25.50488-16.332-36.69043-56.60156-25.95215v22.37207h-13.64648v-30.42578c53.24609-16.7793,90.38477-6.26465,90.38477,32.43945,0,31.76953-22.373,48.99609-45.86523,55.708l-1.56445.44726V1818.816H2522.291Zm-6.93555,37.36133c0-8.27734,6.71094-14.98926,16.332-14.98926,9.39453,0,16.10742,6.71191,16.10742,14.98926,0,8.94922-6.71289,15.21387-16.10742,15.21387C2522.06639,1871.39117,2515.35546,1865.12652,2515.35546,1856.1773Z" style="fill:#ccc"/></svg>