<svg id="Layer_1" data-name="Layer 1" xmlns="http://www.w3.org/2000/svg" viewBox="0 0 411.27441 161.8667"><title>milo</title><path d="M1550.85674,1269.20743h-51.75391v-11.28809h18.31641V1131.40811h-18.31641V1120.12h41.53125l48.34668,123.74268L1637.11456,1120.12h38.33691v11.28809H1657.9876v126.51123h18.95508v11.28809H1620.928v-11.28809h18.31641V1148.87247l-46.2168,120.335h-13.63086l-47.49512-119.48291v108.19482h18.95508v11.28809Z" transform="translate(-1499.10284 -1109.47061)" style="fill:#7373ff"/><path d="M1692.06866,1269.20743v-11.28809h14.9082v-86.04492h-14.9082v-11.28809H1725.719v97.333h14.27051v11.28809h-47.9209Zm9.584-140.56836c0-6.60254,5.96289-12.13965,13.418-12.13965,7.02832,0,12.99121,5.53711,12.99121,12.13965,0,6.81543-5.96289,12.14014-12.99121,12.14014C1707.61553,1140.77921,1701.65264,1135.4545,1701.65264,1128.63907Z" transform="translate(-1499.10284 -1109.47061)" style="fill:#7373ff"/><path d="M1755.1126,1269.20743v-11.28809h14.90918V1120.7587H1755.1126v-11.28809H1788.764v148.44873h14.26953v11.28809h-47.9209Z" transform="translate(-1499.10284 -1109.47061)" style="fill:#7373ff"/><path d="M1812.61846,1215.536c0-30.66943,12.35254-57.07959,48.77246-57.07959,36.63281,0,48.98633,26.41016,48.98633,57.07959,0,30.45654-12.35352,55.80127-48.98633,55.80127C1824.971,1271.33731,1812.61846,1245.99259,1812.61846,1215.536Zm77.09863,0.21289c0-18.31641-2.12891-47.708-28.32617-47.708-25.9834,0-28.11328,29.3916-28.11328,47.708,0,18.10352,2.12988,46.00391,28.11328,46.00391C1887.58819,1261.75284,1889.71709,1233.85245,1889.71709,1215.74893Z" transform="translate(-1499.10284 -1109.47061)" style="fill:#7373ff"/></svg>